<!--?xml version="1.0" standalone="no"?-->
              <svg id="sw-js-blob-svg" viewBox="0 0 100 100" xmlns="http://www.w3.org/2000/svg" version="1.1">
                    <defs> 
                        <linearGradient id="sw-gradient" x1="0" x2="1" y1="1" y2="0">
                            <stop id="stop1" stop-color="rgba(255, 82.072, 210.963, 1)" offset="0%"></stop>
                            <stop id="stop2" stop-color="rgba(230.781, 179.959, 219.733, 1)" offset="100%"></stop>
                        </linearGradient>
                    </defs>
                <path fill="url(#sw-gradient)" d="M21.9,-33.6C27.4,-34.7,30.3,-26.9,30.5,-19.8C30.8,-12.8,28.4,-6.4,27.6,-0.4C26.8,5.5,27.7,11,25.8,15.3C24,19.6,19.4,22.6,14.7,24.9C9.9,27.1,5,28.5,-0.9,30.1C-6.8,31.8,-13.7,33.7,-15.3,29.6C-16.9,25.6,-13.3,15.6,-18,9.6C-22.7,3.7,-35.8,1.9,-39.4,-2.1C-43.1,-6,-37.2,-12.1,-32.8,-18.6C-28.4,-25.1,-25.5,-32.2,-20.3,-31.3C-15.1,-30.4,-7.5,-21.6,0.3,-22.1C8.2,-22.7,16.3,-32.6,21.9,-33.6Z" width="100%" height="100%" transform="translate(50 50)" stroke-width="0" style="transition: all 0.3s ease 0s;" stroke="url(#sw-gradient)"></path>
              </svg>